<?xml version="1.0" encoding="utf-8"?>
<svg version="1.1" xmlns="http://www.w3.org/2000/svg" xmlns:xlink="http://www.w3.org/1999/xlink" height="814" width="1440">
  <defs>
    <rect id="rect-1" opacity="1" x="0" y="0" width="1440" height="814"/>
    <rect id="rect-2" opacity="1" x="0" y="0" width="1440" height="815" rx="0" ry="0"/>
    <mask id="mask-3" maskUnits="userSpaceOnUse" maskContentUnits="userSpaceOnUse">
      <rect opacity="1" x="0" y="0" width="1440" height="814" fill="Black"/>
      <use xlink:href="#rect-2" fill="White"/>
    </mask>
    <rect id="rect-4" opacity="1" x="0" y="0" width="1440" height="1466" rx="0" ry="0"/>
    <linearGradient id="linearGradient-5" x1="0.48" y1="0.12" x2="0.6610208333333333" y2="1.0169572168087697">
      <stop offset="0" stop-color="rgb(0,0,0)" stop-opacity="1"/>
      <stop offset="1" stop-color="rgb(218,218,217)" stop-opacity="1"/>
    </linearGradient>
    <path id="path-6" opacity="1" fill-rule="evenodd" d="M-39,-333.1648216482165 L504,-333.1648216482165 C600.58512928645,-333.1648216482165 679,-254.74995093466651 679,-158.1648216482165 L679,23.835178351783497 C679,120.42030763823351 600.58512928645,198.8351783517835 504,198.8351783517835 L-39,198.8351783517835 C-135.58512928644998,198.8351783517835 -213.99999999999997,120.42030763823351 -214,23.835178351783497 L-214,-158.1648216482165 C-214,-254.7499509346665 -135.58512928645004,-333.1648216482165 -39,-333.1648216482165Z"/>
    <linearGradient id="linearGradient-7" x1="0.62" y1="0.25" x2="0.6610208333333333" y2="1.0169572168087697">
      <stop offset="0" stop-color="rgb(0,0,0)" stop-opacity="1"/>
      <stop offset="1" stop-color="rgb(218,218,217)" stop-opacity="1"/>
    </linearGradient>
    <path id="path-8" opacity="1" fill-rule="evenodd" d="M614.7823172174731,781.1848249333866 L1085.782317217473,781.1848249333866 C1182.3674465039232,781.1848249333866 1260.782317217473,859.5996956469367 1260.782317217473,956.1848249333866 L1260.782317217473,1277.1848249333866 C1260.782317217473,1373.7699542198366 1182.3674465039232,1452.1848249333866 1085.782317217473,1452.1848249333866 L614.7823172174731,1452.1848249333866 C518.1971879310231,1452.1848249333866 439.78231721747306,1373.7699542198366 439.78231721747306,1277.1848249333866 L439.78231721747306,956.1848249333866 C439.78231721747306,859.5996956469367 518.197187931023,781.1848249333866 614.7823172174731,781.1848249333866Z"/>
    <linearGradient id="linearGradient-9" x1="0.5983541666666666" y1="-0.10213345006090134" x2="0.6610208333333333" y2="1.0169572168087697">
      <stop offset="0" stop-color="rgb(0,0,0)" stop-opacity="1"/>
      <stop offset="1" stop-color="rgb(218,218,217)" stop-opacity="1"/>
    </linearGradient>
  </defs>
  <g>
    <g opacity="1">
      <g opacity="1">
        <g opacity="1"/>
        <g mask="url(#mask-3)">
          <g opacity="1">
            <use xlink:href="#rect-4" fill="url(#linearGradient-5)" fill-opacity="1"/>
          </g>
          <g transform="translate(232.5, -67.1648216482165) rotate(-26.000009296668345) translate(-232.5, 67.1648216482165)" opacity="0.67">
            <use xlink:href="#path-6" fill="url(#linearGradient-7)" fill-opacity="1"/>
          </g>
          <g transform="translate(850.2823172174731, 1116.6848249333866) rotate(-26.000009296668345) translate(-850.2823172174731, -1116.6848249333866)" opacity="0.6676897321428571">
            <use xlink:href="#path-8" fill="url(#linearGradient-9)" fill-opacity="1"/>
          </g>
        </g>
      </g>
    </g>
  </g>
</svg>