<svg width="554" height="308" viewBox="0 0 554 308" fill="none" xmlns="http://www.w3.org/2000/svg">
<circle cx="75" cy="266" r="150" fill="#0ABAEE"/>
<path d="M0 153.7V307.5H276.8L553.5 307.4L548.4 302.7C540.8 295.5 525.2 283.2 513.2 274.8C469.4 244.1 425 227.5 373 222.5C354.5 220.7 314.2 221.4 281 224.1C214.7 229.5 188.8 228.2 158.4 218.1C119.3 205 83.1 172.7 63.4 133.5C60.5 127.7 55.1 115.3 51.5 106C36.6 67.7 34.6 62.6 30.2 53C24.3 40 14.7 22.5 6.6 10L0 -4.58211e-06V153.7Z" fill="black"/>
</svg>
