<svg width="768" height="257" viewBox="0 0 768 257" fill="none" xmlns="http://www.w3.org/2000/svg">
<circle cx="221" cy="50" r="50" fill="#0ABAEE"/>
<circle cx="667" cy="100" r="100" fill="#0ABAEE"/>
<path d="M768 128.542L768 0L469.446 0L171 0.0835772L176.501 4.01171C184.698 10.0293 201.524 20.3093 214.467 27.3298C261.709 52.988 309.599 66.8618 365.686 71.0406C385.64 72.545 429.107 71.96 464.916 69.7034C536.427 65.1902 564.362 66.2767 597.151 74.718C639.324 85.6667 678.369 112.662 699.617 145.424C702.745 150.272 708.57 160.635 712.453 168.408C728.524 200.418 730.681 204.681 735.427 212.704C741.79 223.569 752.145 238.195 760.881 248.642L768 257L768 128.542Z" fill="black"/>
<path d="M15.4987 180.673C50.3325 165.977 77.6471 149.298 97.4425 130.869C100.512 128.011 103.887 124.92 105.115 123.929C109.105 120.488 116.471 112.032 126.598 99.143C146.701 73.4824 153.76 65.0261 161.279 57.9112C178.619 41.4068 196.726 30.3261 222.506 20.5284C242.302 13.0052 260.102 8.04808 284.655 3.09093L300 0L149.923 0L1.2517e-06 0V93.311C1.2517e-06 144.632 0.306907 186.622 0.613812 186.622C1.07417 186.622 7.67264 183.939 15.4987 180.673Z" fill="black"/>
</svg>
