<svg width="768" height="422" viewBox="0 0 768 422" fill="none" xmlns="http://www.w3.org/2000/svg">
<ellipse cx="804.802" cy="356.654" rx="153.198" ry="143.812" fill="#0ABAEE"/>
<path d="M1.02677 425.683C1.02677 425.044 0 274.201 0 32.5973C0 32.5973 98.5697 72.8647 110.891 121.761C123.212 170.657 14.3747 175.45 84.195 234.893C154.015 294.335 62.6328 341.313 123.212 351.86C183.791 362.406 243.344 305.84 376.824 307.757C510.304 309.675 587.311 398.838 650.971 381.581C714.63 364.323 804.986 328.85 721.818 261.738C638.65 194.625 615.034 191.749 622.221 121.761C629.409 51.7723 770.076 0 770.076 0V425.683H1.02677Z" fill="black"/>
</svg>
