<?xml version="1.0" encoding="UTF-8" standalone="no"?>
<svg
   xmlns:dc="http://purl.org/dc/elements/1.1/"
   xmlns:cc="http://creativecommons.org/ns#"
   xmlns:rdf="http://www.w3.org/1999/02/22-rdf-syntax-ns#"
   xmlns:svg="http://www.w3.org/2000/svg"
   xmlns="http://www.w3.org/2000/svg"
   viewBox="0 0 1006.6667 793.70667"
   height="793.70667"
   width="1006.6667"
   xml:space="preserve"
   id="svg2"
   version="1.1"><metadata
     id="metadata8"><rdf:RDF><cc:Work
         rdf:about=""><dc:format>image/svg+xml</dc:format><dc:type
           rdf:resource="http://purl.org/dc/dcmitype/StillImage" /></cc:Work></rdf:RDF></metadata><defs
     id="defs6"><clipPath
       id="clipPath26"
       clipPathUnits="userSpaceOnUse"><path
         id="path24"
         d="M 0,595.28 H 755 V 0 H 0 Z" /></clipPath></defs><g
     transform="matrix(1.3333333,0,0,-1.3333333,0,793.70667)"
     id="g10"><g
       transform="translate(52.2505,148.7187)"
       id="g12"><path
         id="path14"
         style="fill:#ffffff;fill-opacity:1;fill-rule:nonzero;stroke:none"
         d="M 0,0 0.924,22.273 H -0.113 L -14.962,-18.746 -29.82,22.273 h -1.03 l 0.916,-22.289 v -35.526 l -14.861,0.004 v 79.767 h 20.23 l 9.826,-26.861 h 0.901 L -4,44.229 14.866,44.222 14.854,-35.538 0,-35.542 Z" /></g><g
       transform="translate(105.8477,176.3779)"
       id="g16"><path
         id="path18"
         style="fill:#ffffff;fill-opacity:1;fill-rule:nonzero;stroke:none"
         d="M 0,0 -0.916,-0.017 -8.69,-30.171 H 7.767 Z M 15.426,-63.197 10.4,-44.004 h -21.827 l -4.913,-19.193 h -17.368 l 21.598,79.759 24.227,0.008 21.594,-79.767 z" /></g><g
       id="g20"><g
         clip-path="url(#clipPath26)"
         id="g22"><g
           transform="translate(175.5547,156.0215)"
           id="g28"><path
             id="path30"
             style="fill:#ffffff;fill-opacity:1;fill-rule:nonzero;stroke:none"
             d="m 0,0 c 4.028,0 6.831,0.767 8.399,2.299 1.553,1.526 2.339,4.029 2.339,7.535 v 3.439 c 0,3.495 -0.786,6.006 -2.339,7.535 C 6.831,22.333 4.028,23.1 0,23.1 H -9.83 V 0 Z m -9.83,-42.841 h -16.913 v 79.76 H 4.104 c 3.882,0.008 7.357,-0.59 10.403,-1.773 3.046,-1.186 5.618,-2.88 7.72,-5.082 2.083,-2.201 3.663,-4.87 4.736,-7.999 1.065,-3.135 1.596,-6.63 1.596,-10.509 0,-5.653 -1.214,-10.483 -3.66,-14.515 C 22.462,-6.996 19,-9.661 14.507,-10.97 L 30.159,-42.841 H 11.418 L -1.949,-13.262 H -9.83 Z" /></g><g
           transform="translate(240.6787,146.4277)"
           id="g32"><path
             id="path34"
             style="fill:#ffffff;fill-opacity:1;fill-rule:nonzero;stroke:none"
             d="M 0,0 -7.087,-9.933 V -33.247 L -24.22,-33.251 V 46.513 H -7.087 V 13.128 l 0.92,0.012 8.69,13.26 14.052,20.121 H 35.768 L 11.894,12.802 36.912,-33.247 H 17.601 Z" /></g><g
           transform="translate(311.5303,125.6289)"
           id="g36"><path
             id="path38"
             style="fill:#ffffff;fill-opacity:1;fill-rule:nonzero;stroke:none"
             d="m 0,0 c 4.874,0.004 8.246,1.812 10.113,5.433 1.87,3.612 2.794,8.656 2.794,15.145 v 13.823 c 0,6.404 -0.931,11.4 -2.786,15.031 C 8.246,53.044 4.874,54.848 0,54.855 -4.875,54.848 -8.254,53.044 -10.109,49.432 -11.988,45.801 -12.92,40.805 -12.92,34.401 l 0.012,-13.948 c -0.012,-6.395 0.92,-11.4 2.799,-15.025 C -8.254,1.812 -4.875,0 0,0 m 0,-13.815 c -10.676,0 -18.533,3.608 -23.596,10.847 -5.07,7.248 -7.601,17.364 -7.601,30.402 0,13.024 2.531,23.141 7.601,30.389 C -18.533,65.063 -10.66,68.68 0,68.68 10.659,68.68 18.532,65.063 23.598,57.823 28.657,50.575 31.2,40.458 31.2,27.434 31.2,14.396 28.657,4.28 23.598,-2.979 18.532,-10.207 10.671,-13.815 0,-13.815" /></g><g
           transform="translate(23.3457,59.7617)"
           id="g40"><path
             id="path42"
             style="fill:#ffffff;fill-opacity:1;fill-rule:nonzero;stroke:none"
             d="M 0,0 H -1.266 V -53.026 L -15.89,-53.034 V 26.743 H 4.686 L 22.86,-26.294 h 1.246 v 53.037 h 14.626 v -79.769 l -20.561,-0.008 z" /></g><g
           transform="translate(77.626,6.7354)"
           id="g44"><path
             id="path46"
             style="fill:#ffffff;fill-opacity:1;fill-rule:nonzero;stroke:none"
             d="M 0,0 V 12.685 H 17.133 V 67.086 H 0 V 79.77 H 51.411 L 51.419,67.086 H 34.278 V 12.685 H 51.419 V -0.008 Z" /></g><g
           transform="translate(169.6074,39.9912)"
           id="g48"><path
             id="path50"
             style="fill:#ffffff;fill-opacity:1;fill-rule:nonzero;stroke:none"
             d="m 0,0 -7.095,-9.94 v -23.316 l -17.125,-0.008 v 79.778 h 17.142 l -0.017,-33.378 0.92,0.004 8.679,13.246 14.063,20.128 H 35.776 L 11.886,12.786 36.908,-33.256 17.589,-33.264 Z" /></g><g
           transform="translate(240.459,19.1875)"
           id="g52"><path
             id="path54"
             style="fill:#ffffff;fill-opacity:1;fill-rule:nonzero;stroke:none"
             d="m 0,0 c 4.862,0 8.246,1.812 10.109,5.425 1.874,3.623 2.807,8.666 2.79,15.151 l 0.017,13.82 c -0.017,6.407 -0.944,11.41 -2.807,15.03 C 8.246,53.038 4.874,54.854 0,54.854 c -4.882,0 -8.258,-1.816 -10.113,-5.428 -1.875,-3.62 -2.814,-8.623 -2.807,-15.03 v -13.95 c 0,-6.394 0.932,-11.398 2.807,-15.026 C -8.258,1.812 -4.886,0 0,0 m 0,-13.835 c -10.676,0.02 -18.533,3.639 -23.603,10.868 -5.071,7.232 -7.594,17.361 -7.594,30.394 0,13.021 2.523,23.151 7.594,30.398 5.07,7.24 12.927,10.857 23.603,10.853 10.659,0 18.524,-3.613 23.594,-10.853 5.071,-7.247 7.59,-17.377 7.59,-30.398 0,-13.033 -2.519,-23.162 -7.59,-30.394 C 18.524,-10.196 10.659,-13.835 0,-13.835" /></g><g
           transform="translate(285.25,6.7275)"
           id="g56"><path
             id="path58"
             style="fill:#ffffff;fill-opacity:1;fill-rule:nonzero;stroke:none"
             d="M 0,0 V 79.777 H 17.256 V 14.056 H 51.529 L 51.538,0 Z" /></g><g
           transform="translate(377.5811,69.9307)"
           id="g60"><path
             id="path62"
             style="fill:#ffffff;fill-opacity:1;fill-rule:nonzero;stroke:none"
             d="m 0,0 h -0.916 l -7.771,-30.167 h 16.45 z m 15.422,-63.195 -5.03,19.185 h -21.826 l -4.913,-19.185 -17.368,-0.008 21.598,79.777 h 24.219 l 21.606,-79.777 z" /></g><g
           transform="translate(470.2534,86.5049)"
           id="g64"><path
             id="path66"
             style="fill:#ffffff;fill-opacity:1;fill-rule:nonzero;stroke:none"
             d="m 0,0 v -57.483 c 0,-3.589 -0.64,-6.852 -1.898,-9.779 -1.254,-2.936 -3.038,-5.432 -5.362,-7.492 -2.33,-2.052 -5.136,-3.624 -8.403,-4.744 -3.266,-1.097 -6.925,-1.654 -10.973,-1.635 -8.144,-0.019 -14.449,2.001 -18.906,6.057 -4.45,4.028 -7.291,9.37 -8.514,15.988 l 16.229,3.314 c 0.605,-3.419 1.765,-6.218 3.479,-8.339 1.714,-2.131 4.28,-3.204 7.712,-3.204 2.897,0 5.172,0.926 6.803,2.809 1.632,1.868 2.46,4.744 2.46,8.648 v 41.793 h -26.29 L -43.648,0 Z" /></g><g
           transform="translate(489.561,6.7354)"
           id="g68"><path
             id="path70"
             style="fill:#ffffff;fill-opacity:1;fill-rule:nonzero;stroke:none"
             d="M 0,0 V 79.77 H 50.966 V 65.702 H 17.14 L 17.144,47.426 49.826,47.418 V 33.366 H 17.144 L 17.14,14.048 H 50.966 L 50.966,0 Z" /></g><g
           transform="translate(571.1421,6.7354)"
           id="g72"><path
             id="path74"
             style="fill:#ffffff;fill-opacity:1;fill-rule:nonzero;stroke:none"
             d="M 0,0 -21.139,79.77 H -2.06 L 7.31,39.19 12.007,16.222 h 0.909 l 4.81,22.968 9.465,40.58 H 45.373 L 24.231,0 Z" /></g><g
           transform="translate(626.1099,6.7275)"
           id="g76"><path
             id="path78"
             style="fill:#ffffff;fill-opacity:1;fill-rule:nonzero;stroke:none"
             d="M 0,0 V 12.692 H 17.145 V 67.078 L 0,67.094 V 79.777 H 51.427 L 51.418,67.078 34.282,67.094 V 12.692 H 51.411 V 0 Z" /></g><g
           transform="translate(723.582,91.2969)"
           id="g80"><path
             id="path82"
             style="fill:#ffffff;fill-opacity:1;fill-rule:nonzero;stroke:none"
             d="M 0,0 -10.051,4.916 1.254,27.08 15.317,20.104 Z m -1.376,-85.944 c -10.663,0 -18.563,3.62 -23.705,10.808 -5.14,7.201 -7.715,17.354 -7.715,30.453 0,13.089 2.562,23.249 7.715,30.458 5.142,7.193 13.042,10.793 23.717,10.793 4.103,0 7.736,-0.547 10.895,-1.659 3.18,-1.116 5.897,-2.645 8.18,-4.615 2.291,-1.996 4.169,-4.393 5.66,-7.215 1.485,-2.819 2.645,-5.971 3.482,-9.48 l -15.997,-3.876 c -0.46,1.899 -0.995,3.655 -1.608,5.251 -0.605,1.595 -1.387,2.964 -2.33,4.099 -0.96,1.156 -2.135,2.044 -3.55,2.697 -1.41,0.641 -3.109,0.975 -5.082,0.975 -4.646,0 -7.947,-1.816 -9.881,-5.429 -1.938,-3.62 -2.913,-8.643 -2.913,-15.03 v -13.945 c 0,-6.399 0.975,-11.403 2.913,-15.026 1.934,-3.613 5.235,-5.424 9.889,-5.424 3.946,0 6.824,1.217 8.624,3.659 1.784,2.429 3.097,5.554 3.935,9.359 l 16,-3.877 c -0.837,-3.509 -1.997,-6.653 -3.482,-9.487 -1.491,-2.818 -3.369,-5.236 -5.66,-7.252 -2.283,-2.017 -5.007,-3.558 -8.18,-4.634 -3.159,-1.065 -6.792,-1.603 -10.907,-1.603" /></g><g
           transform="translate(369.5781,504.9463)"
           id="g84"><path
             id="path86"
             style="fill:#ffffff;fill-opacity:1;fill-rule:nonzero;stroke:none"
             d="m 0,0 -84.987,84.981 -127.042,-127.049 127.049,-127.044 42.351,42.346 -84.706,84.707 42.348,42.346 84.7,-84.705 84.699,84.705 211.75,-211.759 -42.347,-42.35 -169.407,169.4 -127.045,-127.05 127.049,-127.046 42.354,42.353 -84.702,84.701 42.348,42.343 169.403,-169.392 127.042,127.049 L 84.69,84.699 Z" /></g></g></g></g></svg>