<svg width="907" height="634" viewBox="0 0 907 634" fill="none" xmlns="http://www.w3.org/2000/svg">
<circle cx="657" cy="210" r="100" fill="#0ABAEE"/>
<circle cx="187" cy="110" r="100" fill="#0ABAEE"/>
<path d="M912.378 0H105.914C105.914 0 147.522 50.6753 120.599 80.9939C93.6759 111.312 71.2402 127.338 22.6974 213.962C-25.8455 300.587 6.66138 369.443 89.8777 388.5C173.094 407.557 268.387 310.549 319.378 352.129C370.368 393.708 316.781 456.822 378.378 501C439.974 545.178 399.878 612.5 491.878 625.5C583.878 638.5 577.878 641 606.878 594C635.878 547 585.223 481.632 616.225 457.377C647.227 433.122 818.378 357 825.898 352.129C833.418 347.257 871.993 333.937 825.898 302.319C779.803 270.701 716.982 259.44 696.178 233.02C675.374 206.599 672.111 188.841 696.178 158.956C720.246 129.07 912.378 119 912.378 119V0Z" fill="black"/>
<g filter="url(#filter0_d)">
<rect x="52" y="190" width="3" height="120" rx="1.5" fill="#DADAD9"/>
</g>
<g filter="url(#filter1_d)">
<rect x="67.8719" y="204.201" width="2.50601" height="167.068" rx="1.25301" transform="rotate(-90 67.8719 204.201)" fill="#DADAD9"/>
</g>
<g filter="url(#filter2_d)">
<rect x="92.9321" y="264.345" width="2.50601" height="167.068" rx="1.25301" transform="rotate(-90 92.9321 264.345)" fill="#DADAD9"/>
</g>
<g filter="url(#filter3_d)">
<rect x="67.8719" y="284.394" width="2.50601" height="109.429" rx="1.25301" transform="rotate(-90 67.8719 284.394)" fill="#0ABAEE"/>
</g>
<g filter="url(#filter4_d)">
<rect x="183.149" y="284.394" width="2.50601" height="61.8151" rx="1.25301" transform="rotate(-90 183.149 284.394)" fill="#DADAD9"/>
</g>
<g filter="url(#filter5_d)">
<rect x="96.2715" y="224.248" width="2.50601" height="100.241" rx="1.25301" transform="rotate(-90 96.2715 224.248)" fill="#DADAD9"/>
</g>
<g filter="url(#filter6_d)">
<rect x="85.4136" y="244.297" width="2.50601" height="167.068" rx="1.25301" transform="rotate(-90 85.4136 244.297)" fill="#DADAD9"/>
</g>
<g filter="url(#filter7_d)">
<rect x="203.196" y="224.248" width="2.50601" height="41.767" rx="1.25301" transform="rotate(-90 203.196 224.248)" fill="#0ABAEE"/>
</g>
<defs>
<filter id="filter0_d" x="48" y="190" width="11" height="128" filterUnits="userSpaceOnUse" color-interpolation-filters="sRGB">
<feFlood flood-opacity="0" result="BackgroundImageFix"/>
<feColorMatrix in="SourceAlpha" type="matrix" values="0 0 0 0 0 0 0 0 0 0 0 0 0 0 0 0 0 0 127 0"/>
<feOffset dy="4"/>
<feGaussianBlur stdDeviation="2"/>
<feColorMatrix type="matrix" values="0 0 0 0 0 0 0 0 0 0 0 0 0 0 0 0 0 0 0.25 0"/>
<feBlend mode="normal" in2="BackgroundImageFix" result="effect1_dropShadow"/>
<feBlend mode="normal" in="SourceGraphic" in2="effect1_dropShadow" result="shape"/>
</filter>
<filter id="filter1_d" x="63.8719" y="201.695" width="175.068" height="10.506" filterUnits="userSpaceOnUse" color-interpolation-filters="sRGB">
<feFlood flood-opacity="0" result="BackgroundImageFix"/>
<feColorMatrix in="SourceAlpha" type="matrix" values="0 0 0 0 0 0 0 0 0 0 0 0 0 0 0 0 0 0 127 0"/>
<feOffset dy="4"/>
<feGaussianBlur stdDeviation="2"/>
<feColorMatrix type="matrix" values="0 0 0 0 0 0 0 0 0 0 0 0 0 0 0 0 0 0 0.25 0"/>
<feBlend mode="normal" in2="BackgroundImageFix" result="effect1_dropShadow"/>
<feBlend mode="normal" in="SourceGraphic" in2="effect1_dropShadow" result="shape"/>
</filter>
<filter id="filter2_d" x="88.9321" y="261.839" width="175.068" height="10.506" filterUnits="userSpaceOnUse" color-interpolation-filters="sRGB">
<feFlood flood-opacity="0" result="BackgroundImageFix"/>
<feColorMatrix in="SourceAlpha" type="matrix" values="0 0 0 0 0 0 0 0 0 0 0 0 0 0 0 0 0 0 127 0"/>
<feOffset dy="4"/>
<feGaussianBlur stdDeviation="2"/>
<feColorMatrix type="matrix" values="0 0 0 0 0 0 0 0 0 0 0 0 0 0 0 0 0 0 0.25 0"/>
<feBlend mode="normal" in2="BackgroundImageFix" result="effect1_dropShadow"/>
<feBlend mode="normal" in="SourceGraphic" in2="effect1_dropShadow" result="shape"/>
</filter>
<filter id="filter3_d" x="63.8719" y="281.888" width="117.429" height="10.506" filterUnits="userSpaceOnUse" color-interpolation-filters="sRGB">
<feFlood flood-opacity="0" result="BackgroundImageFix"/>
<feColorMatrix in="SourceAlpha" type="matrix" values="0 0 0 0 0 0 0 0 0 0 0 0 0 0 0 0 0 0 127 0"/>
<feOffset dy="4"/>
<feGaussianBlur stdDeviation="2"/>
<feColorMatrix type="matrix" values="0 0 0 0 0 0 0 0 0 0 0 0 0 0 0 0 0 0 0.25 0"/>
<feBlend mode="normal" in2="BackgroundImageFix" result="effect1_dropShadow"/>
<feBlend mode="normal" in="SourceGraphic" in2="effect1_dropShadow" result="shape"/>
</filter>
<filter id="filter4_d" x="179.149" y="281.888" width="69.8151" height="10.506" filterUnits="userSpaceOnUse" color-interpolation-filters="sRGB">
<feFlood flood-opacity="0" result="BackgroundImageFix"/>
<feColorMatrix in="SourceAlpha" type="matrix" values="0 0 0 0 0 0 0 0 0 0 0 0 0 0 0 0 0 0 127 0"/>
<feOffset dy="4"/>
<feGaussianBlur stdDeviation="2"/>
<feColorMatrix type="matrix" values="0 0 0 0 0 0 0 0 0 0 0 0 0 0 0 0 0 0 0.25 0"/>
<feBlend mode="normal" in2="BackgroundImageFix" result="effect1_dropShadow"/>
<feBlend mode="normal" in="SourceGraphic" in2="effect1_dropShadow" result="shape"/>
</filter>
<filter id="filter5_d" x="92.2715" y="221.742" width="108.241" height="10.506" filterUnits="userSpaceOnUse" color-interpolation-filters="sRGB">
<feFlood flood-opacity="0" result="BackgroundImageFix"/>
<feColorMatrix in="SourceAlpha" type="matrix" values="0 0 0 0 0 0 0 0 0 0 0 0 0 0 0 0 0 0 127 0"/>
<feOffset dy="4"/>
<feGaussianBlur stdDeviation="2"/>
<feColorMatrix type="matrix" values="0 0 0 0 0 0 0 0 0 0 0 0 0 0 0 0 0 0 0.25 0"/>
<feBlend mode="normal" in2="BackgroundImageFix" result="effect1_dropShadow"/>
<feBlend mode="normal" in="SourceGraphic" in2="effect1_dropShadow" result="shape"/>
</filter>
<filter id="filter6_d" x="81.4136" y="241.791" width="175.068" height="10.506" filterUnits="userSpaceOnUse" color-interpolation-filters="sRGB">
<feFlood flood-opacity="0" result="BackgroundImageFix"/>
<feColorMatrix in="SourceAlpha" type="matrix" values="0 0 0 0 0 0 0 0 0 0 0 0 0 0 0 0 0 0 127 0"/>
<feOffset dy="4"/>
<feGaussianBlur stdDeviation="2"/>
<feColorMatrix type="matrix" values="0 0 0 0 0 0 0 0 0 0 0 0 0 0 0 0 0 0 0.25 0"/>
<feBlend mode="normal" in2="BackgroundImageFix" result="effect1_dropShadow"/>
<feBlend mode="normal" in="SourceGraphic" in2="effect1_dropShadow" result="shape"/>
</filter>
<filter id="filter7_d" x="199.196" y="221.742" width="49.767" height="10.506" filterUnits="userSpaceOnUse" color-interpolation-filters="sRGB">
<feFlood flood-opacity="0" result="BackgroundImageFix"/>
<feColorMatrix in="SourceAlpha" type="matrix" values="0 0 0 0 0 0 0 0 0 0 0 0 0 0 0 0 0 0 127 0"/>
<feOffset dy="4"/>
<feGaussianBlur stdDeviation="2"/>
<feColorMatrix type="matrix" values="0 0 0 0 0 0 0 0 0 0 0 0 0 0 0 0 0 0 0.25 0"/>
<feBlend mode="normal" in2="BackgroundImageFix" result="effect1_dropShadow"/>
<feBlend mode="normal" in="SourceGraphic" in2="effect1_dropShadow" result="shape"/>
</filter>
</defs>
</svg>
