<svg width="768" height="1024" viewBox="0 0 768 1024" fill="none" xmlns="http://www.w3.org/2000/svg">
<ellipse cx="122.88" cy="931.886" rx="122.88" ry="92.1139" fill="#0ABAEE"/>
<ellipse cx="405.504" cy="115.142" rx="153.6" ry="115.142" fill="#0ABAEE"/>
<path d="M768 0H0V151.478C0 151.478 125.784 186.337 242.365 151.478C358.945 116.619 418.258 195.211 418.258 195.211C418.258 195.211 464.277 232.605 530.748 285.21C597.22 337.816 680.053 321.971 708.687 302.323C737.321 282.675 768 186.337 768 186.337V0Z" fill="black"/>
<path d="M0 845.087V1024H384.069L768 1023.88L760.924 1018.42C750.378 1010.04 728.733 995.732 712.082 985.961C651.308 950.248 589.702 930.937 517.55 925.121C491.881 923.027 435.963 923.841 389.897 926.982C297.904 933.264 261.966 931.752 219.785 920.003C165.533 904.764 115.304 867.19 87.9696 821.589C83.9458 814.842 76.4531 800.417 71.458 789.599C50.7837 745.045 48.0087 739.112 41.9035 727.945C33.7171 712.822 20.3967 692.465 9.15772 677.924L0 666.291V845.087Z" fill="black"/>
</svg>
