<svg width="375" height="667" viewBox="0 0 375 667" fill="none" xmlns="http://www.w3.org/2000/svg">
<circle cx="60" cy="607" r="60" fill="#0ABAEE"/>
<circle cx="198" cy="75" r="75" fill="#0ABAEE"/>
<path d="M375 0H0V98.668C0 98.668 61.4181 121.374 118.342 98.668C175.266 75.962 204.228 127.154 204.228 127.154C204.228 127.154 226.698 151.511 259.154 185.777C291.611 220.042 332.057 209.721 346.039 196.923C360.02 184.125 375 121.374 375 121.374V0Z" fill="black" stroke="black"/>
<path d="M0 550.462V667H187.534L375 666.924L371.545 663.363C366.396 657.907 355.827 648.587 347.696 642.222C318.022 618.96 287.94 606.382 252.71 602.593C240.176 601.23 212.873 601.76 190.379 603.806C145.461 607.898 127.913 606.913 107.317 599.26C80.8266 589.333 56.3008 564.859 42.9539 535.156C40.9892 530.761 37.3306 521.366 34.8916 514.319C24.7968 485.298 23.4417 481.433 20.4607 474.159C16.4634 464.309 9.95935 451.049 4.47155 441.577L0 434V550.462Z" fill="black"/>
</svg>
