<svg width="768" height="1024" viewBox="0 0 768 1024" fill="none" xmlns="http://www.w3.org/2000/svg">
<circle cx="100" cy="924" r="100" fill="#0ABAEE"/>
<path d="M0 869.7V1023.5H276.8L553.5 1023.4L548.4 1018.7C540.8 1011.5 525.2 999.2 513.2 990.8C469.4 960.1 425 943.5 373 938.5C354.5 936.7 314.2 937.4 281 940.1C214.7 945.5 188.8 944.2 158.4 934.1C119.3 921 83.1 888.7 63.4 849.5C60.5 843.7 55.1 831.3 51.5 822C36.6 783.7 34.6 778.6 30.2 769C24.3 756 14.7 738.5 6.6 726L0 716V869.7Z" fill="black"/>
<circle cx="628" cy="140" r="75" fill="#0ABAEE"/>
<circle cx="687" cy="949" r="75" fill="#0ABAEE"/>
<circle cx="250" cy="75" r="75" fill="#0ABAEE"/>
<path d="M768 0H221.741C221.741 0 249.924 34.325 231.688 54.8613C213.451 75.3976 198.255 86.2525 165.374 144.928C132.494 203.603 154.512 250.242 210.879 263.151C267.245 276.059 331.792 210.351 366.331 238.515C400.869 266.679 364.572 309.429 406.295 339.353C448.017 369.277 420.858 414.878 483.174 423.683C545.49 432.489 541.426 434.182 561.069 402.347C580.712 370.511 546.401 326.234 567.401 309.805C588.4 293.376 704.329 241.814 709.423 238.515C714.516 235.215 740.645 226.193 709.423 204.776C678.2 183.36 635.649 175.732 621.557 157.836C607.465 139.94 605.255 127.912 621.557 107.669C637.859 87.426 768 80.6048 768 80.6048V0Z" fill="black"/>
<path d="M757.4 714.2C734.7 739.4 716.9 768 704 799.6C702 804.5 699.8 809.8 699 811.5C696.4 817.4 691.6 831.9 685 854C671.9 898 667.3 912.5 662.4 924.7C651.1 953 639.3 972 622.5 988.8C609.6 1001.7 598 1010.2 582 1018.7L572 1024H669.8H767.5V864C767.5 776 767.3 704 767.1 704C766.8 704 762.5 708.6 757.4 714.2Z" fill="black"/>
</svg>
